PathFileType	3	(X/Y/Z)	D:\minhoCalibration\240510\subject1_KPNP\preferred\preferred20.trc
DataRate	CameraRate	NumFrames	NumMarkers	Units	OrigDataRate	OrigDataStartFrame	OrigNumFrames
200.0	200.0	18	10	mm	200.0	604	219	
Frame#	Time	Left_Ankle_Outer1			Left_Ankle_Inner1			Left_Knee_Outer1			Left_Knee_Inner1			Left_Wrist1			Right_Wrist1			Right_Knee_Inner1			Right_Knee_Outer1			Right_Ankle_Inner1			Right_Ankle_Outer1			
		X1	Y1	Z1	X2	Y2	Z2	X3	Y3	Z3	X4	Y4	Z4	X5	Y5	Z5	X6	Y6	Z6	X7	Y7	Z7	X8	Y8	Z8	X9	Y9	Z9	X10	Y10	Z10	
604	3.01	-604.38416	95.836174	-574.46869	-649.09271	104.79018	-538.98315	-496.776	527.13306	-447.58423	-605.83844	506.7507	-452.32242	-446.73166	992.54681	-518.41663	-790.15997	1035.0166	-582.86212	-731.10956	585.37384	-407.06186	-840.83142	607.22052	-434.93393	-825.96234	153.9729	-465.034	-930.78412	147.85258	-435.95438
605	3.015	-604.29041	95.663696	-575.0174	-648.87091	104.75446	-539.58075	-497.0549	527.71454	-451.34943	-606.08398	507.31134	-455.77963	-447.63382	993.00092	-519.12268	-790.44019	1036.191	-585.31104	-732.73431	586.75659	-408.58856	-842.05859	608.82953	-437.81671	-826.4339	155.16013	-471.58212	-931.72589	148.9549	-445.05548
606	3.02	-604.14441	95.496216	-575.56134	-648.64258	104.76878	-540.12439	-497.00684	528.16467	-455.23065	-606.18829	507.74927	-459.25089	-448.43829	993.43945	-519.78998	-790.7251	1037.1571	-587.54291	-734.5899	587.9375	-409.88913	-843.19971	610.37024	-440.51495	-826.81299	156.41399	-478.48575	-932.76965	150.15617	-455.00348
607	3.025	-604.27838	95.198517	-575.80505	-648.4328	104.76433	-540.51904	-496.98026	528.67029	-459.07886	-606.25299	508.25168	-462.23367	-449.0983	993.93817	-520.63934	-791.01392	1038.0049	-589.62299	-736.53687	588.74304	-411.23846	-844.39917	611.71356	-443.09045	-827.06616	157.71526	-485.52039	-933.6803	151.39735	-464.77155
608	3.03	-604.23615	94.967278	-576.35358	-648.29529	104.74788	-540.95068	-496.79678	528.88947	-462.98608	-605.98071	508.53116	-465.6326	-449.7019	994.43066	-521.39587	-791.29449	1038.6241	-591.56287	-738.7431	589.36725	-412.38843	-845.64246	612.90369	-445.58221	-827.20056	158.80194	-493.01517	-934.44073	152.56169	-474.88156
609	3.035	-604.04382	94.848274	-577.11865	-648.12769	104.69456	-541.38855	-496.93393	529.22601	-466.57755	-606.04901	508.99374	-468.18738	-450.25888	994.93188	-522.21204	-791.57703	1039.0767	-593.36578	-740.9798	589.77698	-413.5686	-847.03369	613.84222	-447.99805	-827.18176	159.91905	-500.84912	-935.4682	153.78563	-486.06668
610	3.04	-603.92877	94.654755	-577.68756	-648.09961	104.56639	-541.81268	-496.71768	529.37646	-470.59146	-605.92877	509.17303	-471.05911	-450.71649	995.36444	-523.08447	-792.05334	1039.5078	-595.1377	-743.40051	590.35815	-413.6199	-848.50751	614.6438	-450.24866	-827.2301	160.94649	-508.82596	-935.91235	154.92729	-496.88168
611	3.045	-604.0282	94.272324	-578.08862	-647.96991	104.43012	-542.18738	-496.62607	529.51434	-474.37106	-605.55463	509.33301	-474.27426	-451.15833	995.80603	-523.83722	-792.39301	1039.8228	-596.67163	-745.62769	590.39618	-415.14697	-850.0033	615.11322	-452.46127	-827.26965	161.83319	-516.89874	-936.19995	156.12842	-507.84897
612	3.05	-604.22125	93.797646	-578.33801	-647.94293	104.3667	-542.60193	-496.7803	529.72577	-477.95041	-605.42188	509.44144	-477.1189	-451.63602	996.24323	-524.672	-792.82654	1039.9711	-598.16541	-747.87537	590.27441	-416.78494	-851.52606	615.51025	-454.61783	-827.42206	162.59796	-525.66229	-936.2373	157.29042	-518.8855
613	3.055	-604.32507	93.482727	-578.77423	-647.91461	104.16782	-543.00433	-496.7543	529.77112	-481.51508	-605.64655	509.63544	-479.2991	-452.07101	996.66388	-525.43048	-793.16614	1039.9432	-599.58337	-750.1662	590.06177	-418.27408	-853.05389	615.77057	-456.72528	-826.90253	164.01076	-534.22638	-935.97186	158.38768	-529.99738
614	3.06	-604.47803	93.155891	-579.17303	-647.93719	104.05444	-543.40314	-496.87	529.74982	-484.93466	-605.53107	509.5657	-482.3501	-452.50687	997.05682	-526.11127	-793.51001	1039.8823	-600.84436	-752.50671	589.77411	-419.77917	-854.61365	615.83344	-458.89075	-826.06921	165.35315	-543.26758	-935.59918	159.65599	-540.98358
615	3.065	-604.5473	92.902596	-579.57855	-647.97131	103.87134	-543.75073	-497.48611	529.81494	-487.83392	-605.91107	509.69141	-484.48184	-452.96033	997.41473	-526.8009	-793.88983	1039.6724	-602.11218	-754.86835	589.3631	-421.18518	-856.20215	615.82648	-461.04736	-825.89014	166.36501	-552.18103	-935.0799	160.85101	-552.26379
616	3.07	-604.76849	92.534172	-579.89807	-648.04968	103.7207	-544.10718	-497.54767	529.72711	-490.84732	-606.21747	509.564	-486.97028	-453.47247	997.71814	-527.38684	-794.32776	1039.3972	-603.39038	-757.21948	588.81458	-422.63611	-857.85028	615.69775	-463.25116	-824.74103	167.84512	-561.68115	-934.37781	162.11613	-563.49225
617	3.075	-604.87653	92.293816	-580.18024	-648.11011	103.5152	-544.41016	-498.17215	529.38989	-493.27002	-606.3775	509.40335	-489.94388	-453.91159	998.01569	-527.97308	-794.73157	1039.0526	-604.49072	-759.56299	588.07367	-424.078	-859.49115	615.35724	-465.60339	-824.12384	168.81979	-571.53888	-933.54315	163.37314	-574.61841
618	3.08	-604.78412	92.109299	-580.7486	-648.18549	103.36919	-544.64691	-498.4848	529.31311	-495.49725	-607.02545	509.41199	-491.72305	-454.38205	998.21869	-528.69226	-795.09656	1038.6229	-605.50201	-761.88409	587.17328	-425.53757	-861.17755	614.84784	-467.95392	-823.43188	170.16711	-580.73804	-932.6543	164.698	-585.96136
619	3.085	-604.86584	91.913963	-580.92456	-648.03247	103.17746	-544.84375	-499.00119	529.21771	-497.46121	-607.547	509.34158	-493.93146	-454.92789	998.36877	-529.28888	-795.53827	1038.0698	-606.47504	-764.25763	586.18097	-426.98694	-862.83246	614.19592	-470.36771	-822.71332	171.45065	-590.71039	-931.75482	165.9774	-597.12683
620	3.09	-604.93921	91.638817	-581.1156	-648.22119	103.11998	-544.97284	-499.20923	529.06659	-499.25613	-607.97961	509.58252	-495.65076	-455.45108	998.50781	-529.94952	-795.97858	1037.4722	-607.29395	-766.67706	585.1203	-428.54214	-864.3446	613.34283	-472.95074	-821.26874	172.82509	-600.4444	-930.62268	167.27034	-608.0827
621	3.095	-604.91241	91.514091	-581.23798	-648.23718	103.00585	-545.14923	-499.68793	529.11835	-500.51718	-608.5979	509.17715	-497.77161	-455.97693	998.61316	-530.68805	-796.52887	1036.786	-608.21204	-769.00165	584.03314	-430.17551	-865.89325	612.44708	-475.63235	-820.60059	173.99536	-609.83734	-929.30316	168.50488	-618.8623
